<?xml version="1.0" encoding="utf-8"?>
<!-- Generator: Adobe Illustrator 24.3.0, SVG Export Plug-In . SVG Version: 6.00 Build 0)  -->
<svg version="1.1" id="Layer_1" xmlns="http://www.w3.org/2000/svg" xmlns:xlink="http://www.w3.org/1999/xlink" x="0px" y="0px"
	 viewBox="0 0 1920 1080" style="enable-background:new 0 0 1920 1080;" xml:space="preserve">
<style type="text/css">
	.st0{fill:#033A40;}
	.st1{opacity:0.2;}
	.st2{fill:none;stroke:#3D6569;stroke-width:11;stroke-opacity:0.75;}
	.st3{fill:none;stroke:#9393B4;stroke-width:11;}
	.st4{fill:none;stroke:#7D6557;stroke-width:11;}
	.st5{fill:none;stroke:#7D5757;stroke-width:11;}
	.st6{fill:none;stroke:#CE77CB;stroke-width:11;}
	.st7{fill:none;stroke:#EFE9AE;stroke-width:11;}
</style>
<g>
	<polygon class="st0" points="1084.9,1.2 1.9,962.1 1.9,1080.9 967.4,1079.1 1920.5,233.3 1923.3,0 	"/>
	<path class="st0" d="M-62.4,1081c-0.6,0-2.6,0-3.3,0"/>
	<path class="st0" d="M967.4,1079.1C645,1080,323,1080,1.3,1080.9"/>
	<path class="st0" d="M388.5,1592.7"/>
	<path class="st0" d="M2083.5,88.7"/>
	<line class="st0" x1="1923.3" y1="0" x2="1920.5" y2="233.3"/>
</g>
<g class="st1">
	<circle class="st2" cx="1323" cy="907" r="41.5"/>
</g>
<g class="st1">
	<circle class="st2" cx="147" cy="385" r="41.5"/>
</g>
<g class="st1">
	<circle class="st3" cx="1685" cy="699" r="41.5"/>
</g>
<g class="st1">
	<circle class="st3" cx="438" cy="177" r="41.5"/>
</g>
<g class="st1">
	<circle class="st3" cx="1403" cy="675" r="41.5"/>
</g>
<g class="st1">
	<circle class="st3" cx="194" cy="97" r="41.5"/>
</g>
<g class="st1">
	<path class="st4" d="M1600,868.4L1600,868.4L1600,868.4z M1600.6,868.9l57.1,51.3l-74.1,23.5L1600.6,868.9z M1600.8,868.1
		L1600.8,868.1L1600.8,868.1z"/>
</g>
<g class="st1">
	<path class="st4" d="M424,346.4L424,346.4L424,346.4z M424.6,346.9l57.1,51.3l-74.1,23.5L424.6,346.9z M424.8,346.1L424.8,346.1
		L424.8,346.1z"/>
</g>
<g class="st1">
	<path class="st5" d="M1795,336.8L1795,336.8L1795,336.8z M1794.9,337.6l-7.2,76.4l-63-45.6L1794.9,337.6z M1795.7,337.3
		L1795.7,337.3L1795.7,337.3z"/>
</g>
<g class="st1">
	<path class="st6" d="M1816.1,1081.5h36.3c0-0.5,0-1,0-1.5c0-22.9-18.6-41.5-41.5-41.5c-22.9,0-41.5,18.6-41.5,41.5
		C1785.1,1079.7,1800.7,1079.9,1816.1,1081.5z"/>
</g>
<g class="st1">
	<circle class="st6" cx="635" cy="558" r="41.5"/>
</g>
<g class="st1">
	<path class="st7" d="M1916.9,598c0.1-7,0.4-13.9,0.9-20.9c-1.2-1-1.9-2.5-1.9-4.5v-24.1l-9.2-8.3l-17,74.8l27.3-8.7
		C1916.9,603.6,1916.9,600.8,1916.9,598z"/>
	<path class="st7" d="M1906,539.7L1906,539.7L1906,539.7z"/>
	<path class="st7" d="M1906.8,539.5L1906.8,539.5L1906.8,539.5z"/>
</g>
<g class="st1">
	<path class="st7" d="M780,7.7L780,7.7L780,7.7z M780.7,8.3l57.1,51.3l-74.1,23.5L780.7,8.3z M780.8,7.5L780.8,7.5L780.8,7.5z"/>
</g>
<g class="st1">
	<path class="st4" d="M1220,1037.7L1220,1037.7L1220,1037.7z M1220.7,1038.3l57.1,51.3l-74.1,23.6L1220.7,1038.3z M1220.8,1037.5
		L1220.8,1037.5L1220.8,1037.5z"/>
</g>
<g class="st1">
	<path class="st4" d="M56,609.7L56,609.7L56,609.7z M56.7,610.3l57.1,51.3l-74.1,23.5L56.7,610.3z M56.8,609.5L56.8,609.5
		L56.8,609.5z"/>
</g>
</svg>
