<?xml version="1.0" encoding="utf-8"?>
<!-- Generator: Adobe Illustrator 24.3.0, SVG Export Plug-In . SVG Version: 6.00 Build 0)  -->
<svg version="1.1" id="Layer_1" xmlns="http://www.w3.org/2000/svg" xmlns:xlink="http://www.w3.org/1999/xlink" x="0px" y="0px"
	 viewBox="0 0 1080 1080" style="enable-background:new 0 0 1080 1080;" xml:space="preserve">
<style type="text/css">
	.st0{display:none;}
	.st1{display:inline;fill:#032D30;}
	.st2{opacity:0.21;fill:none;stroke:#0071BC;stroke-width:5;stroke-miterlimit:10;}
	.st3{opacity:0.21;fill:none;stroke:#006837;stroke-width:5;stroke-miterlimit:10;}
	.st4{opacity:0.21;fill:none;stroke:#00A99D;stroke-width:5;stroke-miterlimit:10;}
	.st5{opacity:0.21;fill:none;stroke:#662D91;stroke-width:5;stroke-miterlimit:10;}
	.st6{opacity:0.21;fill:none;stroke:#FFFF00;stroke-width:5;stroke-miterlimit:10;}
	.st7{opacity:0.21;fill:none;stroke:#9E005D;stroke-width:5;stroke-miterlimit:10;}
	.st8{opacity:0.21;fill:none;stroke:#F7931E;stroke-width:5;stroke-miterlimit:10;}
	.st9{opacity:0.21;fill:none;stroke:#ED1E79;stroke-width:5;stroke-miterlimit:10;}
	.st10{opacity:0.21;fill:none;stroke:#C7B299;stroke-width:5;stroke-miterlimit:10;}
	.st11{opacity:0.21;}
	.st12{fill:none;stroke:#39B54A;stroke-width:5;stroke-miterlimit:10;}
	.st13{fill:none;stroke:#E115FF;stroke-width:5;stroke-miterlimit:10;}
	.st14{fill:none;stroke:#736357;stroke-width:3;stroke-miterlimit:10;}
	.st15{fill:none;stroke:#666666;stroke-width:3;stroke-miterlimit:10;}
	.st16{opacity:0.21;fill:none;stroke:#C1272D;stroke-width:3;stroke-miterlimit:10;}
	.st17{opacity:0.21;fill:none;stroke:#3B7400;stroke-width:3;stroke-miterlimit:10;}
	.st18{opacity:0.21;fill:none;stroke:#FBB03B;stroke-width:5;stroke-miterlimit:10;}
	.st19{opacity:0.21;fill:none;stroke:#666666;stroke-width:5;stroke-miterlimit:10;}
	.st20{opacity:0.21;fill:none;stroke:#7AC943;stroke-width:5;stroke-miterlimit:10;}
	.st21{opacity:0.21;fill:none;stroke:#C69C6D;stroke-width:5;stroke-miterlimit:10;}
</style>
<g class="st0">
	<rect class="st1" width="1080" height="1080"/>
</g>
<circle class="st2" cx="95.5" cy="159.5" r="29.5"/>
<circle class="st3" cx="230" cy="294" r="40.5"/>
<circle class="st4" cx="519" cy="170" r="62.5"/>
<circle class="st5" cx="685" cy="382" r="36.5"/>
<circle class="st6" cx="386.5" cy="589.5" r="19"/>
<circle class="st7" cx="764" cy="896" r="14.5"/>
<circle class="st8" cx="201" cy="638" r="20.5"/>
<circle class="st9" cx="252" cy="874.36" r="34.2"/>
<circle class="st10" cx="890" cy="602" r="43.5"/>
<g class="st11">
	<path class="st12" d="M314.17,424.81c2.83,5.61,7.86,13.33,16.61,17.63c13.48,6.63,24.64-0.34,43.23,1.71
		c8.43,0.93,20.5,3.94,34.59,13.81"/>
	<path class="st12" d="M312.1,436.23c2.83,5.61,7.86,13.33,16.61,17.63c13.48,6.63,24.64-0.34,43.23,1.71
		c8.43,0.93,20.5,3.94,34.59,13.81"/>
	<path class="st12" d="M308.31,445.91c2.83,5.61,7.86,13.33,16.61,17.63c13.48,6.63,24.64-0.34,43.23,1.71
		c8.43,0.93,20.5,3.94,34.59,13.81"/>
</g>
<g class="st11">
	<path class="st13" d="M276.09,161.67c5.92-2.1,14.22-6.11,19.59-14.25c8.28-12.53,2.78-24.49,7.16-42.67
		c1.99-8.24,6.51-19.84,18.08-32.56"/>
	<path class="st13" d="M287.15,165.16c5.92-2.1,14.22-6.11,19.59-14.25c8.28-12.53,2.78-24.49,7.16-42.67
		c1.99-8.24,6.51-19.84,18.08-32.56"/>
	<path class="st13" d="M296.27,170.16c5.92-2.1,14.22-6.11,19.59-14.25c8.28-12.53,2.78-24.49,7.16-42.67
		c1.99-8.24,6.51-19.84,18.08-32.56"/>
</g>
<g class="st11">
	<path class="st14" d="M792.85,308.15c4.42,1.02,11.1,1.82,17.91-0.92c10.5-4.23,12.64-13.37,23.39-22.41
		c4.87-4.1,12.74-9.21,25.26-12.29"/>
	<path class="st14" d="M797.78,314.43c4.42,1.02,11.1,1.82,17.91-0.92c10.5-4.23,12.64-13.37,23.39-22.41
		c4.87-4.1,12.74-9.21,25.26-12.29"/>
	<path class="st14" d="M800.89,320.85c4.42,1.02,11.1,1.82,17.91-0.92c10.5-4.23,12.64-13.37,23.39-22.41
		c4.87-4.1,12.74-9.21,25.26-12.29"/>
</g>
<g class="st11">
	<path class="st15" d="M584.47,673.39c2.86,3.53,7.63,8.27,14.69,10.29c10.88,3.13,18.19-2.76,32.23-3.27
		c6.36-0.23,15.71,0.58,27.48,5.85"/>
	<path class="st15" d="M584.48,681.37c2.86,3.53,7.63,8.27,14.69,10.29c10.88,3.13,18.19-2.76,32.23-3.27
		c6.36-0.23,15.71,0.58,27.48,5.85"/>
	<path class="st15" d="M582.99,688.35c2.86,3.53,7.63,8.27,14.69,10.29c10.88,3.13,18.19-2.76,32.23-3.27
		c6.36-0.23,15.71,0.58,27.48,5.85"/>
</g>
<path class="st16" d="M97.11,477.07l-35.9,15.71c-6.27,2.74-13.15-2.33-12.4-9.13l4.34-38.94c0.76-6.8,8.59-10.23,14.1-6.17
	l31.55,23.23C104.32,465.83,103.38,474.33,97.11,477.07z"/>
<path class="st17" d="M617.7,526.14l-21.51,32.75c-3.76,5.72-12.29,5.23-15.37-0.89l-17.61-35c-3.07-6.11,1.62-13.26,8.45-12.87
	l39.12,2.25C617.61,512.78,621.46,520.42,617.7,526.14z"/>
<path class="st2" d="M152.35,778.58l-8.91,59.83c-0.99,6.62-8.67,9.82-14.06,5.85L83.8,810.69c-5.39-3.97-4.62-12.25,1.41-15.16
	l54.49-26.27C146.13,766.16,153.4,771.52,152.35,778.58z"/>
<path class="st18" d="M469.43,864.37l92.32,53.84c5.74,3.35,5.91,11.57,0.32,15.16l-81.78,52.51c-5.59,3.59-12.99,0-13.65-6.6
	l-10.54-106.35C455.4,865.7,463.17,860.71,469.43,864.37z"/>
<path class="st19" d="M836.97,100.46l56.72,18.15c7.16,2.29,8.42,11.88,2.09,15.94l-63.82,40.98c-6.33,4.06-14.52-1.08-13.63-8.54
	l7.1-59.12C826.1,102.32,831.65,98.76,836.97,100.46z"/>
<path class="st20" d="M906.35,816.66l22.83-45.57c4.78-9.54,17.88-10.82,24.42-2.38l27,34.85c6.54,8.44,2.02,20.81-8.41,23.05
	l-49.83,10.72C910.47,839.88,900.9,827.54,906.35,816.66z"/>
<path class="st5" d="M920.4,483.09l-32.52-10.41c-8.9-2.85-13.81-12.38-10.96-21.28l10.41-32.52c2.85-8.9,12.38-13.81,21.28-10.96
	l32.52,10.41c8.9,2.85,13.81,12.38,10.96,21.28l-10.41,32.52C938.83,481.03,929.3,485.93,920.4,483.09z"/>
<path class="st8" d="M898.4,1015.09l-32.52-10.41c-8.9-2.85-13.81-12.38-10.96-21.28l10.41-32.52c2.85-8.9,12.38-13.81,21.28-10.96
	l32.52,10.41c8.9,2.85,13.81,12.38,10.96,21.28l-10.41,32.52C916.83,1013.03,907.3,1017.93,898.4,1015.09z"/>
<path class="st21" d="M185.25,1024.85l-45.92,22.14c-8.42,4.06-18.54,0.52-22.6-7.9l-22.28-46.21c-4.06-8.42-0.52-18.54,7.9-22.6
	l45.92-22.14c8.42-4.06,18.54-0.52,22.6,7.9l22.28,46.21C197.21,1010.67,193.67,1020.79,185.25,1024.85z"/>
</svg>
