<svg width="1920" height="1080" viewBox="0 0 1920 1080" fill="none" xmlns="http://www.w3.org/2000/svg">
<g filter="url(#filter0_i_4_21)">
<rect x="-94.8988" y="1048" width="2266.06" height="728.268" transform="rotate(-41.5834 -94.8988 1048)" fill="#033A40"/>
</g>
<g style="mix-blend-mode:soft-light">
<circle cx="1323" cy="907" r="41.5" stroke="#3D6569" stroke-opacity="0.75" stroke-width="11"/>
</g>
<g style="mix-blend-mode:hue">
<circle cx="147" cy="385.006" r="41.5" stroke="#3D6569" stroke-opacity="0.75" stroke-width="11"/>
</g>
<g style="mix-blend-mode:soft-light">
<circle cx="1685" cy="699" r="41.5" stroke="#9393B4" stroke-width="11"/>
</g>
<g style="mix-blend-mode:hue">
<circle cx="438" cy="177" r="41.5" stroke="#9393B4" stroke-width="11"/>
</g>
<g style="mix-blend-mode:soft-light">
<circle cx="1403" cy="675" r="41.5" stroke="#9393B4" stroke-width="11"/>
</g>
<g style="mix-blend-mode:hue">
<circle cx="194" cy="97" r="41.5" stroke="#9393B4" stroke-width="11"/>
</g>
<g style="mix-blend-mode:soft-light">
<path d="M1600 868.357L1600 868.358L1600 868.357ZM1600.63 868.926L1657.72 920.192L1583.6 943.742L1600.63 868.926ZM1600.82 868.097L1600.82 868.096L1600.82 868.097Z" stroke="#7D6557" stroke-width="11"/>
</g>
<g style="mix-blend-mode:hue">
<path d="M423.999 346.364L424 346.364L423.999 346.364ZM424.632 346.932L481.721 398.199L407.603 421.748L424.632 346.932ZM424.82 346.104L424.82 346.103L424.82 346.104Z" stroke="#7D6557" stroke-width="11"/>
</g>
<g style="mix-blend-mode:soft-light">
<path d="M1794.97 336.752L1794.97 336.754L1794.97 336.752ZM1794.89 337.599L1787.65 413.986L1724.62 368.422L1794.89 337.599ZM1795.67 337.258L1795.67 337.258L1795.67 337.258Z" stroke="#7D5757" stroke-width="11"/>
</g>
<g style="mix-blend-mode:soft-light">
<circle cx="1811" cy="1080" r="41.5" stroke="#CE77CB" stroke-width="11"/>
</g>
<g style="mix-blend-mode:hue">
<circle cx="635" cy="558.006" r="41.5" stroke="#CE77CB" stroke-width="11"/>
</g>
<g style="mix-blend-mode:soft-light">
<path d="M1906.02 539.733L1906.03 539.734L1906.02 539.733ZM1906.66 540.301L1963.75 591.568L1889.63 615.117L1906.66 540.301ZM1906.85 539.473L1906.85 539.472L1906.85 539.473Z" stroke="#EFE9AE" stroke-width="11"/>
</g>
<g style="mix-blend-mode:hue">
<path d="M780.024 7.7328L780.025 7.73353L780.024 7.7328ZM780.657 8.3011L837.746 59.5677L763.629 83.1172L780.657 8.3011ZM780.846 7.47282L780.846 7.47175L780.846 7.47282Z" stroke="#EFE9AE" stroke-width="11"/>
</g>
<g style="mix-blend-mode:soft-light">
<path d="M1220.02 1037.73L1220.03 1037.73L1220.02 1037.73ZM1220.66 1038.3L1277.75 1089.57L1203.63 1113.12L1220.66 1038.3ZM1220.85 1037.47L1220.85 1037.47L1220.85 1037.47Z" stroke="#7D6557" stroke-width="11"/>
</g>
<g style="mix-blend-mode:hue">
<path d="M56.0244 609.733L56.0252 609.734L56.0244 609.733ZM56.6572 610.301L113.746 661.568L39.6288 685.117L56.6572 610.301ZM56.8457 609.473L56.846 609.472L56.8457 609.473Z" stroke="#7D6557" stroke-width="11"/>
</g>
<defs>
<filter id="filter0_i_4_21" x="-94.8988" y="-456" width="2178.35" height="2052.74" filterUnits="userSpaceOnUse" color-interpolation-filters="sRGB">
<feFlood flood-opacity="0" result="BackgroundImageFix"/>
<feBlend mode="normal" in="SourceGraphic" in2="BackgroundImageFix" result="shape"/>
<feColorMatrix in="SourceAlpha" type="matrix" values="0 0 0 0 0 0 0 0 0 0 0 0 0 0 0 0 0 0 127 0" result="hardAlpha"/>
<feOffset dy="4"/>
<feGaussianBlur stdDeviation="5"/>
<feComposite in2="hardAlpha" operator="arithmetic" k2="-1" k3="1"/>
<feColorMatrix type="matrix" values="0 0 0 0 0 0 0 0 0 0 0 0 0 0 0 0 0 0 0.25 0"/>
<feBlend mode="normal" in2="shape" result="effect1_innerShadow_4_21"/>
</filter>
</defs>
</svg>
